<?xml version="1.0" encoding="UTF-8" standalone="no"?>
<!-- Generator: Adobe Illustrator 21.1.0, SVG Export Plug-In . SVG Version: 6.00 Build 0)  -->

<svg
   xmlns:dc="http://purl.org/dc/elements/1.1/"
   xmlns:cc="http://creativecommons.org/ns#"
   xmlns:rdf="http://www.w3.org/1999/02/22-rdf-syntax-ns#"
   xmlns:svg="http://www.w3.org/2000/svg"
   xmlns="http://www.w3.org/2000/svg"
   xmlns:xlink="http://www.w3.org/1999/xlink"
   xmlns:sodipodi="http://sodipodi.sourceforge.net/DTD/sodipodi-0.dtd"
   xmlns:inkscape="http://www.inkscape.org/namespaces/inkscape"
   version="1.1"
   id="Layer_1"
   x="0px"
   y="0px"
   viewBox="0 0 700 700"
   xml:space="preserve"
   sodipodi:docname="dulux-logo.svg"
   width="700"
   height="700"
   inkscape:export-filename="G:\Users\suitedoalex\sites\svg\dulux-logo-0.png"
   inkscape:export-xdpi="561.73712"
   inkscape:export-ydpi="561.73712"
   inkscape:version="0.92.4 (5da689c313, 2019-01-14)"><metadata
   id="metadata668"><rdf:RDF><cc:Work
       rdf:about=""><dc:format>image/svg+xml</dc:format><dc:type
         rdf:resource="http://purl.org/dc/dcmitype/StillImage" /><dc:title></dc:title></cc:Work></rdf:RDF></metadata><defs
   id="defs666" /><sodipodi:namedview
   pagecolor="#ffffff"
   bordercolor="#666666"
   borderopacity="1"
   objecttolerance="10"
   gridtolerance="10"
   guidetolerance="10"
   inkscape:pageopacity="0"
   inkscape:pageshadow="2"
   inkscape:window-width="1600"
   inkscape:window-height="837"
   id="namedview664"
   showgrid="false"
   inkscape:zoom="0.68720485"
   inkscape:cx="24.450692"
   inkscape:cy="294.78862"
   inkscape:window-x="-8"
   inkscape:window-y="-8"
   inkscape:window-maximized="1"
   inkscape:current-layer="g653" />
<style
   type="text/css"
   id="style2">
	.st0{fill:#162667;}
	.st1{fill:url(#SVGID_1_);}
	.st2{clip-path:url(#SVGID_3_);fill:url(#SVGID_4_);}
	.st3{fill:url(#SVGID_5_);}
	.st4{clip-path:url(#SVGID_7_);}
	.st5{fill:url(#SVGID_8_);}
	.st6{filter:url(#Adobe_OpacityMaskFilter);}
	.st7{clip-path:url(#SVGID_10_);fill:#FFFFFF;}
	.st8{clip-path:url(#SVGID_10_);mask:url(#SVGID_11_);}
	.st9{fill:#172768;}
	.st10{fill:#182868;}
	.st11{fill:#192969;}
	.st12{fill:#1A2969;}
	.st13{fill:#1B2A6A;}
	.st14{fill:#1B2B6B;}
	.st15{fill:#1C2C6B;}
	.st16{fill:#1D2D6C;}
	.st17{fill:#1E2E6C;}
	.st18{fill:#1F2F6D;}
	.st19{fill:#202F6E;}
	.st20{fill:#21306E;}
	.st21{fill:#22316F;}
	.st22{fill:#23326F;}
	.st23{fill:#243370;}
	.st24{fill:#253471;}
	.st25{fill:#263471;}
	.st26{fill:#263572;}
	.st27{fill:#273672;}
	.st28{fill:#283773;}
	.st29{fill:#293873;}
	.st30{fill:#2A3974;}
	.st31{fill:#2B3A75;}
	.st32{fill:#2C3A75;}
	.st33{fill:#2D3B76;}
	.st34{fill:#2E3C76;}
	.st35{fill:#2F3D77;}
	.st36{fill:#303E78;}
	.st37{fill:#303F78;}
	.st38{fill:#314079;}
	.st39{fill:#324079;}
	.st40{fill:#33417A;}
	.st41{fill:#34427B;}
	.st42{fill:#35437B;}
	.st43{fill:#36447C;}
	.st44{fill:#37457C;}
	.st45{fill:#38457D;}
	.st46{fill:#39467E;}
	.st47{fill:#3A477E;}
	.st48{fill:#3B487F;}
	.st49{fill:#3B497F;}
	.st50{fill:#3C4A80;}
	.st51{fill:#3D4B81;}
	.st52{fill:#3E4B81;}
	.st53{fill:#3F4C82;}
	.st54{fill:#404D82;}
	.st55{fill:#414E83;}
	.st56{fill:#424F84;}
	.st57{fill:#435084;}
	.st58{fill:#445185;}
	.st59{fill:#455185;}
	.st60{fill:#455286;}
	.st61{fill:#465387;}
	.st62{fill:#475487;}
	.st63{fill:#485588;}
	.st64{fill:#495688;}
	.st65{fill:#4A5789;}
	.st66{fill:#4B578A;}
	.st67{fill:#4C588A;}
	.st68{fill:#4D598B;}
	.st69{fill:#4E5A8B;}
	.st70{fill:#4F5B8C;}
	.st71{fill:#505C8D;}
	.st72{fill:#515D8E;}
	.st73{fill:#525E8E;}
	.st74{fill:#535F8F;}
	.st75{fill:#546090;}
	.st76{fill:#556190;}
	.st77{fill:#566291;}
	.st78{fill:#576291;}
	.st79{fill:#586392;}
	.st80{fill:#596492;}
	.st81{fill:#5A6593;}
	.st82{fill:#5B6694;}
	.st83{fill:#5B6794;}
	.st84{fill:#5C6895;}
	.st85{fill:#5D6895;}
	.st86{fill:#5E6996;}
	.st87{fill:#5F6A97;}
	.st88{fill:#606B97;}
	.st89{fill:#616C98;}
	.st90{fill:#626D98;}
	.st91{fill:#636D99;}
	.st92{fill:#646E9A;}
	.st93{fill:#656F9A;}
	.st94{fill:#65709B;}
	.st95{fill:#66719B;}
	.st96{fill:#67729C;}
	.st97{fill:#68739D;}
	.st98{fill:#69739D;}
	.st99{fill:#6A749E;}
	.st100{fill:#6B759E;}
	.st101{fill:#6C769F;}
	.st102{fill:#6D77A0;}
	.st103{fill:#6E78A0;}
	.st104{fill:#6F79A1;}
	.st105{fill:#7079A1;}
	.st106{fill:#707AA2;}
	.st107{fill:#717BA3;}
	.st108{fill:#727CA3;}
	.st109{fill:#737DA4;}
	.st110{fill:#747EA4;}
	.st111{fill:#757FA5;}
	.st112{fill:#767FA6;}
	.st113{fill:#7780A6;}
	.st114{fill:#7881A7;}
	.st115{fill:#7982A7;}
	.st116{fill:#7A83A8;}
	.st117{fill:#7A84A9;}
	.st118{fill:#7B84A9;}
	.st119{fill:#7C85AA;}
	.st120{fill:#7D86AA;}
	.st121{fill:#7E87AB;}
	.st122{fill:#7F88AC;}
	.st123{fill:#8089AC;}
	.st124{fill:#818AAD;}
	.st125{fill:#828AAD;}
	.st126{fill:#838BAE;}
	.st127{fill:#848CAF;}
	.st128{fill:#858DAF;}
	.st129{fill:#858EB0;}
	.st130{fill:#868FB0;}
	.st131{fill:#8790B1;}
	.st132{fill:#8890B1;}
	.st133{fill:#8991B2;}
	.st134{fill:#8A92B3;}
	.st135{fill:#8B93B3;}
	.st136{fill:#8C94B4;}
	.st137{fill:#8D95B4;}
	.st138{fill:#8E95B5;}
	.st139{fill:#8F96B6;}
	.st140{fill:#9097B6;}
	.st141{fill:#9098B7;}
	.st142{fill:#9199B7;}
	.st143{fill:#929AB8;}
	.st144{fill:#939BB9;}
	.st145{fill:#949BB9;}
	.st146{fill:#959CBA;}
	.st147{fill:#969DBA;}
	.st148{fill:#979EBB;}
	.st149{fill:#989FBC;}
	.st150{fill:#99A0BC;}
	.st151{fill:#9AA1BD;}
	.st152{fill:#9BA2BE;}
	.st153{fill:#9CA3BF;}
	.st154{fill:#9DA4BF;}
	.st155{fill:#9EA5C0;}
	.st156{fill:#9FA6C0;}
	.st157{fill:#A0A6C1;}
	.st158{fill:#A1A7C2;}
	.st159{fill:#A2A8C2;}
	.st160{fill:#A3A9C3;}
	.st161{fill:#A4AAC3;}
	.st162{fill:#A5ABC4;}
	.st163{fill:#A5ACC5;}
	.st164{fill:#A6ACC5;}
	.st165{fill:#A7ADC6;}
	.st166{fill:#A8AEC6;}
	.st167{fill:#A9AFC7;}
	.st168{fill:#AAB0C8;}
	.st169{fill:#ABB1C8;}
	.st170{fill:#ACB2C9;}
	.st171{fill:#ADB2C9;}
	.st172{fill:#AEB3CA;}
	.st173{fill:#AFB4CB;}
	.st174{fill:#AFB5CB;}
	.st175{fill:#B0B6CC;}
	.st176{fill:#B1B7CC;}
	.st177{fill:#B2B8CD;}
	.st178{fill:#B3B8CE;}
	.st179{fill:#B4B9CE;}
	.st180{fill:#B5BACF;}
	.st181{fill:#B6BBCF;}
	.st182{fill:#B7BCD0;}
	.st183{fill:#B8BDD0;}
	.st184{fill:#B9BDD1;}
	.st185{fill:#BABFD2;}
	.st186{fill:#BBC0D3;}
	.st187{fill:#BCC1D3;}
	.st188{fill:#BDC2D4;}
	.st189{fill:#BEC3D5;}
	.st190{fill:#BFC3D5;}
	.st191{fill:#C0C4D6;}
	.st192{fill:#C1C5D6;}
	.st193{fill:#C2C6D7;}
	.st194{fill:#C3C7D8;}
	.st195{fill:#C4C8D8;}
	.st196{fill:#C5C9D9;}
	.st197{fill:#C6CADA;}
	.st198{fill:#C7CBDB;}
	.st199{fill:#C8CCDB;}
	.st200{fill:#C9CDDC;}
	.st201{fill:#CACEDC;}
	.st202{fill:#CBCEDD;}
	.st203{fill:#CCCFDE;}
	.st204{fill:#CDD0DE;}
	.st205{fill:#CED1DF;}
	.st206{fill:#CFD2DF;}
	.st207{fill:#CFD3E0;}
	.st208{fill:#D0D4E1;}
	.st209{fill:#D1D4E1;}
	.st210{fill:#D3D6E2;}
	.st211{fill:#D4D7E3;}
	.st212{fill:#D5D8E4;}
	.st213{fill:#D6D9E4;}
	.st214{fill:#D7DAE5;}
	.st215{fill:#D8DAE5;}
	.st216{fill:#D9DBE6;}
	.st217{fill:#DADCE7;}
	.st218{fill:#DADDE7;}
	.st219{fill:#DBDEE8;}
	.st220{fill:#DCDFE8;}
	.st221{fill:#DDE0E9;}
	.st222{fill:#DEE0EA;}
	.st223{fill:#E0E2EB;}
	.st224{fill:#E1E3EB;}
	.st225{fill:#E2E4EC;}
	.st226{fill:#E3E5ED;}
	.st227{fill:#E4E5ED;}
	.st228{fill:#E4E6EE;}
	.st229{fill:#E5E7EE;}
	.st230{fill:#E6E8EF;}
	.st231{fill:#E7E9EF;}
	.st232{fill:#E8EAF0;}
	.st233{fill:#E9EBF1;}
	.st234{fill:#EAEBF1;}
	.st235{fill:#EBECF2;}
	.st236{fill:#EDEEF3;}
	.st237{fill:#EEEFF4;}
	.st238{fill:#EFF0F4;}
	.st239{fill:#EFF1F5;}
	.st240{fill:#F0F1F5;}
	.st241{fill:#F1F2F6;}
	.st242{fill:#F2F3F7;}
	.st243{fill:#F3F4F7;}
	.st244{fill:#F4F5F8;}
	.st245{fill:#F5F6F8;}
	.st246{fill:#F6F6F9;}
	.st247{fill:#F7F7FA;}
	.st248{fill:#F8F8FA;}
	.st249{fill:#FAFAFB;}
	.st250{fill:#FAFBFC;}
	.st251{fill:#FBFCFD;}
	.st252{fill:#FCFCFD;}
	.st253{fill:#FDFDFE;}
	.st254{fill:#FEFEFE;}
	.st255{fill:#FFFFFF;}
	.st256{fill:url(#SVGID_12_);}
	.st257{fill:#A02322;}
</style>
<g
   id="g661"
   transform="matrix(8.5248161,0,0,8.5248161,86.549083,221.27528)">
	<g
   id="g655">
		<g
   id="g653">
			<g
   id="g651"
   inkscape:export-xdpi="72.933395"
   inkscape:export-ydpi="72.933395">
				<path
   class="st0"
   d="m 55.5,4 c 4.7,2.3 6.3,5.5 6.3,8.7 0,0 0.2,2.5 -1.4,4.9 -0.8,1.2 -1.4,1.8 -1.4,3 0,0.6 0,0.8 0.1,1.2 0.1,1.7 -0.6,2.9 -0.9,3.2 -0.5,0.7 -0.8,1.1 -1.2,1.8 0,0.1 -0.1,0.3 -0.1,0.3 -0.1,0.4 -0.2,0.5 -0.3,0.6 -0.2,0.2 -0.4,0.2 -0.5,0.2 -0.2,0 -0.3,-0.2 -0.2,-0.5 0,0 0,-0.1 0.1,-0.2 0.1,-0.2 0.3,-0.3 0.6,-0.7 0.1,-0.2 0.3,-0.4 0.4,-0.7 0.4,-0.7 0.5,-1 0.7,-1.4 0.2,-0.4 0.3,-1 0.3,-1.5 0,-0.5 -0.1,-0.6 -0.3,-0.6 -0.2,0 -0.5,0.2 -0.5,0.3 -0.1,0.1 -0.2,0.2 -0.4,0.3 -0.1,0.1 -0.3,0.2 -0.5,0.3 -0.1,0.1 -0.2,0.2 -0.3,0.3 -0.1,0.1 -0.2,0.3 -0.3,0.4 -0.2,0.2 -0.3,0.4 -0.3,0.5 0,0.1 -0.3,0.5 -0.6,0.5 -0.2,0 -0.2,-0.2 -0.1,-0.5 0.2,-0.4 0.2,-0.4 0.3,-0.5 0.1,-0.1 0.3,-0.2 0.4,-0.4 0.1,-0.2 0.6,-1 0.8,-1.3 0.6,-0.9 0.9,-0.8 0.9,-1.5 0,-0.3 0,-0.6 -0.3,-0.8 -0.3,-0.2 -0.6,-0.3 -0.7,-0.3 -0.1,0 -0.7,0 -1.3,-0.5 -0.6,-0.5 -0.7,-1 -0.7,-1.1 0,0 0,-0.3 0.4,-0.3 0,0 0.2,0 0.2,0.2 -0.1,0.3 -0.1,0.5 0.2,0.7 0.3,0.3 1.1,0.4 1.6,0.2 0.6,-0.2 1.4,-0.4 1.8,-0.5 0.2,-0.1 0.6,-0.2 1,-0.7 0.6,-0.7 1.6,-1.5 1.6,-4.1 0,0 0.1,-1.9 -1.1,-3.4 C 58.2,8.2 56.7,10 54,8 Z"
   id="path4"
   inkscape:connector-curvature="0"
   style="fill:#162667" />
				<linearGradient
   id="SVGID_1_"
   gradientUnits="userSpaceOnUse"
   x1="38.613602"
   y1="5.875"
   x2="54.7341"
   y2="19.4018">
					<stop
   offset="0"
   style="stop-color:#9FBE37"
   id="stop6" />
					<stop
   offset="0.6"
   style="stop-color:#69B8EB"
   id="stop8" />
					<stop
   offset="0.6538"
   style="stop-color:#66B2E6"
   id="stop10" />
					<stop
   offset="0.7241"
   style="stop-color:#5CA2D7"
   id="stop12" />
					<stop
   offset="0.8037"
   style="stop-color:#4D87BE"
   id="stop14" />
					<stop
   offset="0.89"
   style="stop-color:#38619C"
   id="stop16" />
					<stop
   offset="0.9809"
   style="stop-color:#1C3171"
   id="stop18" />
					<stop
   offset="1"
   style="stop-color:#162667"
   id="stop20" />
				</linearGradient>
				<path
   class="st1"
   d="m 59.2,18.2 c 0.6,-0.7 1.6,-1.5 1.6,-4.1 0,0 0.1,-1.9 -1.1,-3.4 -1.6,-1.9 -3.1,-0.1 -5.8,-2.1 -0.8,-0.7 -1.2,-1.3 -1.7,-2 0,0 -1,-1.3 -3.3,-2 -2.4,-0.7 -5.9,-0.7 -7.8,0.6 -0.3,0.2 -0.8,0.6 -0.8,0.9 0,0.2 0.2,0.2 0.6,0.3 0.4,0.1 0.6,0.2 0.6,0.3 0,0.1 0,0.1 -0.2,0.2 0,0.1 -0.2,0.2 -0.3,0.2 -1.5,0.8 -2.3,1.3 -3.8,2.5 -0.8,0.6 -3.7,3.2 -8,5.1 l -0.4,-1 c 1.8,-0.4 3.1,-1.1 3.8,-1.7 1,-0.8 1.7,-1.4 2.6,-2.5 0.9,-1.1 1.5,-1.7 2.7,-3 1.2,-1.3 2.3,-2.2 4,-3.1 2.3,-1.1 6.9,-2.4 13.6,0.6 4.7,2.3 6.3,5.5 6.3,8.7 0,0 0.2,2.5 -1.4,4.9 z"
   id="path23"
   inkscape:connector-curvature="0"
   style="fill:url(#SVGID_1_)" />
				<g
   id="g54">
					<defs
   id="defs26">
						<path
   id="SVGID_2_"
   d="m 35.3,9.6 c 0.9,-1.1 1.5,-1.7 2.7,-3 0.2,-0.2 0.5,-0.5 0.7,-0.7 -13,5.6 -24.4,1.1 -25.3,0.7 0.6,0.7 1.3,1.6 2.2,2.5 0,0 3.2,3.2 7.1,4.4 4.9,1.4 8.5,-0.3 9.9,-1.4 1,-0.8 1.7,-1.5 2.7,-2.5 z"
   inkscape:connector-curvature="0" />
					</defs>
					<clipPath
   id="SVGID_3_">
						<use
   xlink:href="#SVGID_2_"
   style="overflow:visible"
   id="use28"
   x="0"
   y="0"
   width="100%"
   height="100%" />
					</clipPath>
					<linearGradient
   id="SVGID_4_"
   gradientUnits="userSpaceOnUse"
   x1="14.2494"
   y1="11.3941"
   x2="51.962101"
   y2="4.7442999">
						<stop
   offset="0"
   style="stop-color:#DA9033"
   id="stop31" />
						<stop
   offset="2.336113e-02"
   style="stop-color:#DC9A34"
   id="stop33" />
						<stop
   offset="0.1225"
   style="stop-color:#E5C238"
   id="stop35" />
						<stop
   offset="0.2015"
   style="stop-color:#EBDA3B"
   id="stop37" />
						<stop
   offset="0.25"
   style="stop-color:#EDE33C"
   id="stop39" />
						<stop
   offset="0.6"
   style="stop-color:#8AB53C"
   id="stop41" />
						<stop
   offset="0.6406"
   style="stop-color:#84B24F"
   id="stop43" />
						<stop
   offset="0.8145"
   style="stop-color:#6DA69C"
   id="stop45" />
						<stop
   offset="0.9385"
   style="stop-color:#5E9FCC"
   id="stop47" />
						<stop
   offset="1"
   style="stop-color:#589CDE"
   id="stop49" />
					</linearGradient>
					<path
   class="st2"
   d="m 52.2,6.6 c 0,0 -1,-1.3 -3.3,-2 -2.4,-0.7 -5.9,-0.7 -7.8,0.6 -0.3,0.2 -0.8,0.6 -0.8,0.9 0,0.2 0.2,0.2 0.6,0.3 0.4,0.1 0.6,0.2 0.6,0.3 0,0.1 0,0.1 -0.2,0.2 0,0.1 -0.2,0.2 -0.3,0.2 -1.5,0.8 -2.3,1.3 -3.8,2.5 -0.6,0.5 -2.4,2 -5.1,3.6 v 0 C 40.3,8.7 43,6.8 47.5,6.4 c 2.4,-0.2 4.4,0.1 4.8,0.3 v 0 c 0,0 0,-0.1 -0.1,-0.1 z m -16.9,3 c 0.9,-1.1 1.5,-1.7 2.7,-3 0.2,-0.2 0.5,-0.5 0.7,-0.7 -13,5.6 -24.4,1.1 -25.3,0.7 0.6,0.7 1.3,1.6 2.2,2.5 0,0 3.2,3.2 7.1,4.4 4.9,1.4 8.5,-0.3 9.9,-1.4 1,-0.8 1.7,-1.5 2.7,-2.5 z"
   clip-path="url(#SVGID_3_)"
   id="path52"
   inkscape:connector-curvature="0"
   style="fill:url(#SVGID_4_)" />
				</g>
				<linearGradient
   id="SVGID_5_"
   gradientUnits="userSpaceOnUse"
   x1="25.1108"
   y1="11.0491"
   x2="38.001202"
   y2="9.9214001">
					<stop
   offset="0.3"
   style="stop-color:#B3C43D"
   id="stop56" />
					<stop
   offset="1"
   style="stop-color:#73A43F"
   id="stop58" />
				</linearGradient>
				<path
   class="st3"
   d="m 29.3,12.4 c -0.2,0.4 -0.8,0.5 -1.5,0.7 -0.7,0.3 -1.6,0.6 -2,0.9 3.3,0.2 5.7,-1.1 6.8,-1.9 1,-0.8 1.7,-1.4 2.6,-2.5 0.9,-1 1.4,-1.6 2.4,-2.7 v 0 c 0,0 -0.9,0.6 -1.6,1.2 0,0 -0.4,0.3 -0.7,0.5 -1,0.7 -1.6,0.2 -3.6,0.4 -1.1,0.1 -2.2,0.3 -3.2,0.5 -0.8,0.2 -1.8,0.4 -1.8,0.7 0,0.2 0.4,0.2 1.1,0.3 0.3,0 0.5,0.1 0.5,0.2 0,0.1 -0.2,0.2 -0.4,0.3 -0.8,0.3 -1.9,0.5 -2.9,0.7 1.1,0.1 2.3,0.1 3.6,0 0.2,0 0.4,0.1 0.5,0.2 0.3,0.1 0.4,0.3 0.2,0.5 z"
   id="path61"
   inkscape:connector-curvature="0"
   style="fill:url(#SVGID_5_)" />
				<g
   id="g80">
					<defs
   id="defs64">
						<path
   id="SVGID_6_"
   d="m 52.3,6.7 v 0 c 0,0 -0.1,-0.1 -0.1,-0.1 0,0 -1,-1.3 -3.3,-2 -2.4,-0.7 -5.9,-0.7 -7.8,0.6 -0.3,0.2 -0.8,0.6 -0.8,0.9 0,0.2 0.2,0.2 0.6,0.3 0.4,0.1 0.6,0.2 0.6,0.3 0,0.1 0,0.1 -0.2,0.2 0,0.1 -0.2,0.2 -0.3,0.2 -1.5,0.8 -2.3,1.3 -3.8,2.5 -0.6,0.5 -2.4,2 -5.1,3.6 v 0 C 40.5,8.7 43,6.8 47.5,6.4 c 2.4,-0.2 4.4,0.1 4.8,0.3"
   inkscape:connector-curvature="0" />
					</defs>
					<clipPath
   id="SVGID_7_">
						<use
   xlink:href="#SVGID_6_"
   style="overflow:visible"
   id="use66"
   x="0"
   y="0"
   width="100%"
   height="100%" />
					</clipPath>
					<g
   class="st4"
   clip-path="url(#SVGID_7_)"
   id="g78">
						<linearGradient
   id="SVGID_8_"
   gradientUnits="userSpaceOnUse"
   x1="11.9766"
   y1="11.7948"
   x2="47.366299"
   y2="5.5545998">
							<stop
   offset="0.25"
   style="stop-color:#EDE235"
   id="stop69" />
							<stop
   offset="0.5"
   style="stop-color:#AAC335"
   id="stop71" />
							<stop
   offset="0.95"
   style="stop-color:#61ABC7"
   id="stop73" />
						</linearGradient>
						<path
   class="st5"
   d="m 52.3,6.7 v 0 c 0,0 -0.1,-0.1 -0.1,-0.1 0,0 -1,-1.3 -3.3,-2 -2.4,-0.7 -5.9,-0.7 -7.8,0.6 -0.3,0.2 -0.8,0.6 -0.8,0.9 0,0.2 0.2,0.2 0.6,0.3 0.4,0.1 0.6,0.2 0.6,0.3 0,0.1 0,0.1 -0.2,0.2 0,0.1 -0.2,0.2 -0.3,0.2 -1.5,0.8 -2.3,1.3 -3.8,2.5 -0.6,0.5 -2.4,2 -5.1,3.6 v 0 C 40.5,8.7 43,6.8 47.5,6.4 c 2.4,-0.2 4.4,0.1 4.8,0.3 m -17,2.9 c 0.9,-1.1 1.5,-1.7 2.7,-3 0.2,-0.2 0.5,-0.5 0.7,-0.7 -13,5.6 -24.4,1.1 -25.3,0.7 0.6,0.7 1.3,1.6 2.2,2.5 0,0 3.2,3.2 7.1,4.4 4.9,1.4 8.5,-0.3 9.9,-1.4 1,-0.8 1.7,-1.5 2.7,-2.5 z"
   id="path76"
   inkscape:connector-curvature="0"
   style="fill:url(#SVGID_8_)" />
					</g>
				</g>
				<g
   id="g614">
					<defs
   id="defs83">
						<path
   id="SVGID_9_"
   d="m 52.2,6.6 c 0,0 -1,-1.3 -3.3,-2 -2.4,-0.7 -5.9,-0.7 -7.8,0.6 -0.3,0.2 -0.8,0.6 -0.8,0.9 0,0.2 0.2,0.2 0.6,0.3 0.4,0.1 0.6,0.2 0.6,0.3 0,0.1 0,0.1 -0.2,0.2 0,0.1 -0.2,0.2 -0.3,0.2 -1.5,0.8 -2.3,1.3 -3.8,2.5 -0.6,0.5 -2.4,2 -5.1,3.6 v 0 C 40.5,8.7 43,6.8 47.5,6.4 c 2.4,-0.2 4.4,0.1 4.8,0.3 v 0 c 0,0 0,-0.1 -0.1,-0.1 z"
   inkscape:connector-curvature="0" />
					</defs>
					<clipPath
   id="SVGID_10_">
						<use
   xlink:href="#SVGID_9_"
   style="overflow:visible"
   id="use85"
   x="0"
   y="0"
   width="100%"
   height="100%" />
					</clipPath>
					<defs
   id="defs91">
						<filter
   id="Adobe_OpacityMaskFilter"
   filterUnits="userSpaceOnUse"
   x="30.1"
   y="3.0999999"
   width="23.9"
   height="11">
							<feColorMatrix
   type="matrix"
   values="1 0 0 0 0  0 1 0 0 0  0 0 1 0 0  0 0 0 1 0"
   id="feColorMatrix88" />
						</filter>
					</defs>
					<mask
   maskUnits="userSpaceOnUse"
   x="30.1"
   y="3.1"
   width="23.9"
   height="11"
   id="SVGID_11_">
						<g
   class="st6"
   id="g101"
   style="filter:url(#Adobe_OpacityMaskFilter)">
							<g
   id="g99">
								<polygon
   class="st7"
   points="40.1,6.6 41.1,6.9 42,8.5 45.9,7.2 50.2,6.9 52.6,7.2 52.9,6.4 48.2,3.4 44,3.6 41,4.6 40.1,6.1 "
   clip-path="url(#SVGID_10_)"
   id="polygon93"
   style="fill:#ffffff" />
								<g
   clip-path="url(#SVGID_10_)"
   id="g97">
									
										<image
   sodipodi:absref="G:\Users\suitedoalex\sites\svg\859BEE3A7F738F2B.png"
   xlink:href="859BEE3A7F738F2B.png"
   id="image95"
   transform="translate(30.7906,5.2454)"
   height="9.1999998"
   width="12"
   style="overflow:visible" />
								</g>
							</g>
						</g>
					</mask>
					
				</g>
				<linearGradient
   id="SVGID_12_"
   gradientUnits="userSpaceOnUse"
   x1="8.8137999"
   y1="8.3834"
   x2="30.5042"
   y2="18.4979">
					<stop
   offset="0"
   style="stop-color:#AE1D1F"
   id="stop616" />
					<stop
   offset="0.1458"
   style="stop-color:#BD431F"
   id="stop618" />
					<stop
   offset="0.3487"
   style="stop-color:#D0731F"
   id="stop620" />
					<stop
   offset="0.45"
   style="stop-color:#D7851F"
   id="stop622" />
					<stop
   offset="0.5476"
   style="stop-color:#DD9823"
   id="stop624" />
					<stop
   offset="0.8162"
   style="stop-color:#EEC82F"
   id="stop626" />
					<stop
   offset="0.95"
   style="stop-color:#F4DA33"
   id="stop628" />
				</linearGradient>
				<path
   class="st256"
   d="m 31.5,13.6 c -0.6,0.4 -1.3,0.7 -2.1,1 C 26.5,15.9 23,17 18.9,17 9.5,17 5.5,11.8 2.9,6.9 2.6,6.3 2.1,5.3 1.9,4.6 1.6,3.7 1.2,3.1 0.4,2.4 0.2,2.3 0.1,2.2 0,2.1 0,2 0,1.9 0.3,1.9 0.5,1.9 0.9,2 1.1,2.2 1.3,2.3 1.4,2.4 1.5,2.6 1.6,2.8 1.9,3.2 2.1,3.7 2.5,4.6 2.7,4.5 2.7,4.3 2.7,4 2.3,3.2 1.8,2 1.8,1.8 1.6,1.5 1.2,1.4 0.8,1.3 0.7,1.1 0.6,1 0.5,0.9 0.4,0.7 0.2,0.7 0.2,0.7 0,0.7 0,0.5 0,0.3 0.1,0.2 0.3,0.2 0.5,0.2 0.7,0.4 1,0.6 1.2,0.8 1.4,1 1.5,1 1.6,1 1.6,0.9 1.6,0.8 c 0,-0.1 0,-0.2 0.1,-0.2 0.2,0 0.8,0.6 1,0.8 C 3.2,2 3.2,2.1 4,2.4 4.2,2.5 4.4,2.6 4.5,2.7 4.7,2.9 5.1,3.7 5.3,3.6 5.4,3.6 5.4,3.3 5.4,3.1 5.4,2.9 5.6,3 5.7,3 6.3,3.6 7,4.9 7.8,4.9 8.1,4.9 8.2,4.8 8.3,4.6 8.6,4.2 8.3,3.8 8.3,3.5 8.3,3.2 8.7,3.2 9,3.6 c 0.3,0.3 0.6,0.6 1.1,0.3 0.4,-0.3 0.7,-0.7 1.3,-0.2 0.5,0.4 0.8,1 0.9,1.3 0,0 1.2,2.2 3.3,4.1 0,0 3.2,3.2 7.1,4.4 2.5,0.7 4.6,0.6 6.3,0.3 z"
   id="path631"
   inkscape:connector-curvature="0"
   style="fill:url(#SVGID_12_)" />
				<path
   class="st257"
   d="M 13.4,6.6 C 12.7,5.6 12.3,5 12.3,5 12.2,4.9 12.1,4.7 12,4.4 11.9,4.2 11.7,3.9 11.3,4 c -0.5,0.2 -0.7,2.6 0.1,5 0,0 0.7,2 2.6,3.2 0,0 0.1,0 0.1,0 v 0 c 0,0 0,0 0,-0.1 -0.1,-0.1 -1.2,-1 -1.6,-2.4 -0.2,-0.9 -0.2,-1.2 0,-1.4 0.1,-0.1 0.2,-0.1 0.2,0 0,0 0.2,0.1 0.6,0.5 1.6,1.4 3.6,3.3 6.2,3.7 -2,-1.2 -4.1,-3.1 -6.1,-5.9 z"
   id="path633"
   inkscape:connector-curvature="0"
   style="fill:#a02322" />
				<path
   class="st255"
   d="M 56.5,4.8 C 56.4,4.7 56.3,4.7 56.2,4.7 c 1.4,0.8 1.7,1.4 2,2.6 0.3,1.4 1.4,0.8 2.6,2.6 0,0 0.7,1.1 0.8,2.8 v 0 c 0,-3.3 -1.7,-6 -5.1,-7.9 z"
   id="path635"
   inkscape:connector-curvature="0"
   style="fill:#ffffff" />
				<path
   class="st257"
   d="m 26.8,15.4 c -2.6,0.9 -5.3,1.4 -7.9,1.4 -7.4,0 -11.3,-3.4 -13.8,-7.1 0,0 1.5,1.9 3.1,2.9 1.3,0.8 2.5,0.7 3.2,0 5,4.3 10.1,4.3 15.4,2.8 z"
   id="path637"
   inkscape:connector-curvature="0"
   style="fill:#a02322"
   inkscape:export-xdpi="207.77847"
   inkscape:export-ydpi="207.77847" />
				<path
   class="st0"
   d="m 57.5,18.6 c 0.2,-0.2 0.2,-1.1 0.2,-1.1 0,0 -0.4,-0.6 -0.7,-0.5 -0.4,0.1 -0.4,0.8 -0.3,1.3 0,0.6 0.6,0.5 0.8,0.3 z"
   id="path639"
   inkscape:connector-curvature="0"
   style="fill:#162667" />
				<path
   class="st0"
   d="m 24.6,19.8 h -2.2 v 6.8 c 0,1.1 -0.7,1.7 -1.7,1.7 -0.9,0 -1.7,-0.6 -1.7,-1.7 v -5.7 c 0,-0.6 -0.5,-1.1 -1.1,-1.1 h -2.7 c 0.3,0.4 0.5,0.9 0.5,1.5 v 5.1 c 0,2.6 1.8,3.6 4.6,3.6 1.9,0 3,-0.7 4.1,-0.7 0.3,0 0.7,0 1.1,0.1 v -8.5 c 0.2,-0.6 -0.3,-1.1 -0.9,-1.1 z"
   id="path641"
   inkscape:connector-curvature="0"
   style="fill:#162667" />
				<path
   class="st0"
   d="m 40.9,19.8 h -2.2 v 6.8 c 0,1.1 -0.7,1.7 -1.7,1.7 -0.9,0 -1.7,-0.6 -1.7,-1.7 v -5.7 c 0,-0.6 -0.5,-1.1 -1.1,-1.1 h -2.7 c 0.3,0.4 0.5,0.9 0.5,1.5 v 5.1 c 0,2.6 1.8,3.6 4.6,3.6 1.9,0 3,-0.7 4.1,-0.7 0.3,0 0.7,0 1.1,0.1 V 20.9 C 42,20.3 41.5,19.8 40.9,19.8 Z"
   id="path643"
   inkscape:connector-curvature="0"
   style="fill:#162667" />
				<path
   class="st0"
   d="m 29.5,16.9 h -2.7 c 0.3,0.4 0.5,0.9 0.5,1.5 v 10.8 c 0,0.2 0.2,0.4 0.4,0.4 h 2.9 V 18 c -0.1,-0.6 -0.5,-1.1 -1.1,-1.1 z"
   id="path645"
   inkscape:connector-curvature="0"
   style="fill:#162667" />
				<path
   class="st0"
   d="M 8,16 H 1.1 c 0.3,0.4 0.5,0.9 0.5,1.5 v 11.7 c 0,0.2 0.2,0.4 0.4,0.4 h 6 c 1.7,0 6.5,-1 6.5,-7 C 14.5,16.5 9.7,16 8,16 Z M 6.8,27.7 H 5.3 v -9.8 h 1.6 c 2.8,0 3.8,1.4 3.8,4.7 -0.1,3.2 -1.3,5.1 -3.9,5.1 z"
   id="path647"
   inkscape:connector-curvature="0"
   style="fill:#162667" />
				<path
   class="st0"
   d="m 53,20.2 c 0.1,-0.2 0.1,-0.4 -0.2,-0.4 h -2.4 l -2,2.5 -1.2,-1.7 c -0.4,-0.5 -0.8,-0.8 -1.6,-0.8 h -3.2 c 0.6,0.4 1,0.8 1.5,1.5 l 2.5,3.5 -3.4,4.3 c -0.1,0.2 -0.1,0.4 0.2,0.4 h 2.4 l 2.3,-2.8 1.4,2 c 0.3,0.5 0.8,0.8 1.6,0.8 h 2.8 l -3.8,-5.3 z"
   id="path649"
   inkscape:connector-curvature="0"
   style="fill:#162667" />
			</g>
		</g>
	</g>
	<g
   id="g659">
		<path
   class="st255"
   d="m 20.2,12.4 c -1.6,-0.8 -3.3,-1.9 -4.9,-3.5 3,3.5 10.3,7.7 16.7,3.8 2,-1.2 3.2,-2.8 3.7,-3.3 0.7,-0.7 1.2,-1.5 1.8,-2.1 4.1,-4.9 8.4,-5.2 10.2,-5.2 0,0 -5.4,-0.8 -10.4,5 0,0 -0.9,1.1 -1.8,2.1 -0.9,0.8 -6.4,7.5 -15.3,3.2 z"
   id="path657"
   inkscape:connector-curvature="0"
   style="fill:#ffffff" />
	</g>
</g>
</svg>